<svg xmlns="http://www.w3.org/2000/svg" viewBox="0 0 180 180" role="img" aria-label="Long Game Portfolio Guard touch icon">
  <rect width="180" height="180" rx="38" fill="#f7f8f4"/>
  <path d="M90 24 130 40v32c0 34-15 63-40 84-25-21-40-50-40-84V40l40-16Z" fill="#1f7a4c"/>
  <path d="M90 40 118 51v24c0 21-10 39-28 53-18-14-28-32-28-53V51l28-11Z" fill="#f7f8f4"/>
  <path d="M62 108c13-20 26-31 39-33 9-1 17 1 25 7" fill="none" stroke="#1f7a4c" stroke-width="9" stroke-linecap="round"/>
  <path d="M62 125h56" stroke="#18211f" stroke-width="8" stroke-linecap="round"/>
</svg>
